PathFileType	3	(X/Y/Z)	results
DataRate	CameraRate	NumFrames	NumMarkers	Units	OrigDataRate	OrigDataStartFrame	OrigNumFrames
30.0	30.0	4	85	mm	30.0	185	369
Frame#	Time	head			nose			neck			shoulder_r			elbow_r			wrist_r			shoulder_l			elbow_l			wrist_l			hip_r			knee_r			ankle_r			hip_l			knee_l			ankle_l			heel_r			heel_l			mtoe_r			ltoe_r			mtoe_l			ltoe_l			asis_l			asis_r			psi_r			psi_l			mhnd_r			lhnd_r			mhnd_l			lhnd_l			l_lat_knee			r_med_wrist			l_lat_ankle			r_med_ankle			r_lat_knee			xiphoid			l_med_ankle			r_med_knee			l_med_elbow			navel			r_lat_elbow			r_lat_wrist			l_med_wrist			l_lat_elbow			l_med_knee			r_med_elbow			r_lat_ankle			l_lat_wrist			chin			T10			r_eye			l_eye			l_ear			r_ear			spinal_cord_8			spinal_cord_12			spinal_cord_27			spinal_cord_33			up_arm_r_0			up_arm_r_5			up_arm_l_0			up_arm_l_5			front_torso_11			front_torso_7			front_torso_4			front_torso_1			front_torso_10			thigh_r_2			thigh_r_3			thigh_l_1			thigh_l_5			shank_l_0			shank_l_4			shank_r_1			shank_r_2			foot_r_1			foot_r_3			foot_r_5			foot_r_6			foot_r_7			foot_l_1			foot_l_7			foot_l_0			foot_l_4			foot_l_5			foot_l_6			
		X1	Y1	Z1	X2	Y2	Z2	X3	Y3	Z3	X4	Y4	Z4	X5	Y5	Z5	X6	Y6	Z6	X7	Y7	Z7	X8	Y8	Z8	X9	Y9	Z9	X10	Y10	Z10	X11	Y11	Z11	X12	Y12	Z12	X13	Y13	Z13	X14	Y14	Z14	X15	Y15	Z15	X16	Y16	Z16	X17	Y17	Z17	X18	Y18	Z18	X19	Y19	Z19	X20	Y20	Z20	X21	Y21	Z21	X22	Y22	Z22	X23	Y23	Z23	X24	Y24	Z24	X25	Y25	Z25	X26	Y26	Z26	X27	Y27	Z27	X28	Y28	Z28	X29	Y29	Z29	X30	Y30	Z30	X31	Y31	Z31	X32	Y32	Z32	X33	Y33	Z33	X34	Y34	Z34	X35	Y35	Z35	X36	Y36	Z36	X37	Y37	Z37	X38	Y38	Z38	X39	Y39	Z39	X40	Y40	Z40	X41	Y41	Z41	X42	Y42	Z42	X43	Y43	Z43	X44	Y44	Z44	X45	Y45	Z45	X46	Y46	Z46	X47	Y47	Z47	X48	Y48	Z48	X49	Y49	Z49	X50	Y50	Z50	X51	Y51	Z51	X52	Y52	Z52	X53	Y53	Z53	X54	Y54	Z54	X55	Y55	Z55	X56	Y56	Z56	X57	Y57	Z57	X58	Y58	Z58	X59	Y59	Z59	X60	Y60	Z60	X61	Y61	Z61	X62	Y62	Z62	X63	Y63	Z63	X64	Y64	Z64	X65	Y65	Z65	X66	Y66	Z66	X67	Y67	Z67	X68	Y68	Z68	X69	Y69	Z69	X70	Y70	Z70	X71	Y71	Z71	X72	Y72	Z72	X73	Y73	Z73	X74	Y74	Z74	X75	Y75	Z75	X76	Y76	Z76	X77	Y77	Z77	X78	Y78	Z78	X79	Y79	Z79	X80	Y80	Z80	X81	Y81	Z81	X82	Y82	Z82	X83	Y83	Z83	X84	Y84	Z84	X85	Y85	Z85	
185	6.166666666666667	79.64852354970435	1696.9482813058878	-230.78318880320074	29.455920601202124	1522.6500875409047	-345.7722928044047	57.46574327864463	1362.8877499342186	-223.7815692895811	238.3465545094932	1328.1298727632693	-246.80308759091105	256.01761070819487	1070.056254409415	-291.97176142516224	154.42776369608322	898.8923471436734	-408.3971752699708	-100.12354438327114	1327.3468056204333	-227.10669990831678	-142.35843290341106	1088.4037319627305	-267.81817583099166	-49.84867418112117	910.6705201219372	-352.6370366345797	148.65146494041946	876.8107974062661	-270.4588759982614	153.02032483224357	485.90289236094685	-183.0308014457871	211.2414126734683	112.30662355418242	-160.68991019573662	-39.80389621806249	869.9477200063253	-258.34318438468495	-44.07729720534371	481.9219971483464	-180.6938731802241	-96.09937721071188	105.98805437576931	-157.7928077566809	212.8906815565316	57.85176421263392	-142.20322561511495	-103.74033846928312	44.52899258430605	-132.19274409376936	240.9586103798517	35.64928709360972	-358.7366673216962	296.6991583175404	45.845093407037645	-292.79527048625096	-131.4784460339733	44.079667193600066	-355.9296273787152	-200.7811374241945	34.11919015885201	-288.05086575867296	-85.69306487116576	935.5253843246574	-280.1440987274835	190.52225822294332	942.1230021739725	-295.53020062034267	106.09344450660704	931.7714242935878	-163.3146701101344	11.72584885917062	929.0945837968836	-162.5523995166919	146.50847283159567	829.8602247909602	-431.9245782321865	105.9682152766679	849.4514887778091	-460.93685403957784	-45.815976963874824	838.3177681408479	-376.373789459412	4.570440563000676	851.1884570049168	-388.67426183567267	-93.68188235358546	478.5082963313739	-166.07638676975162	181.0357982115968	890.0469193246516	-400.9518535669798	-146.98331049590763	99.15898457042887	-141.41495336297888	179.61534370903357	97.24507989761555	-173.70743831304	197.11070560753603	477.23336436616245	-175.2756821426145	53.96390369598459	1198.4319877984033	-322.86706085761193	-72.2549349752562	90.1949504988659	-176.84558043696208	112.84420931433598	475.56103210636337	-197.8661139058449	-146.81789459829668	1091.9203590395452	-234.46624328745602	50.75402929268261	982.4870182036465	-344.18315776669294	268.2054716783451	1083.8046364072704	-327.66995475040244	130.44180022320322	919.3875757514394	-403.09206574130565	-79.75354187469883	908.4267290746875	-356.75900212145035	-145.98930926529516	1105.2848303770515	-301.042645885259	-10.96650549090334	472.18073319804785	-218.17695842908992	244.726779668691	1069.2716084797978	-256.7351709946715	259.4574320285793	101.71314398941716	-162.06112480278898	-28.40720914938061	930.3989606312667	-352.60682629307377	26.7885223899897	1446.535865212073	-325.01478316635	63.962946335806485	1203.4707697383785	-129.59444148708886	64.94369304366238	1550.806619439279	-354.1682153832898	-2.3081048394310715	1557.804435196819	-337.1754938946122	-28.669973615312003	1557.892289585565	-224.4309289909684	138.4521766015818	1537.403979640465	-263.98739505899647	59.835283193961196	1419.8469063559896	-173.7109099238197	61.77477718850445	1302.3822573547448	-126.41434281479552	74.08795597773099	1054.2237781380077	-150.57645485531702	63.19740701668196	1194.356219137868	-142.73293704373984	209.98606092641907	1202.9880663674594	-296.9023962317412	288.38289753999516	1175.3864680546412	-265.92058480002413	-115.03397035582947	1284.729481391452	-261.3942592838204	-148.1809544276925	1152.1637980340113	-221.62985271204772	96.67972106476378	1008.9147875335141	-306.61955905384474	53.38476550112628	1113.4763239079598	-355.82950485335255	-5.11892916371072	1243.1181264604697	-324.12817798599383	-10.569006594277841	1041.8713941798658	-304.2109037883981	125.88719830899964	1284.5529146595243	-337.47258038933256	133.90166242184742	662.1987209262783	-229.96363107801585	230.27239086991145	632.3242693508387	-198.6800418203981	0.44437349187877173	587.8390560536318	-222.3044871828529	-143.27323652864737	768.6224465991295	-218.83570181674594	-149.32133907802694	206.33930847271614	-157.38882633097933	-19.670450334771054	329.55296458729913	-187.19757004858747	234.28219058248047	334.67631415788367	-170.89929486808714	144.8873771752055	284.5764183318841	-177.09785836278414	261.8642521398687	33.606692744006864	-337.9517345037165	282.431407578682	40.29348628850472	-319.1056813577702	216.8657970816487	49.18255407982086	-281.5544504883982	249.26328547590583	62.4273147300289	-264.8620732180738	279.3401249455608	55.30222324324916	-248.45026868525687	-176.08068188635517	33.63260595417213	-322.44009158195917	-175.24274687578955	64.03507530011169	-216.28485364063872	-189.37548516003238	34.22977813074965	-312.25689836191464	-159.64323200075617	32.86549305816858	-334.3156463207486	-156.05687316006205	48.59468076916652	-275.86784889809894	-120.64428712583604	59.05630256053139	-251.73724460664408	
186	6.2	79.16562273727197	1696.6989592310022	-232.00920681235246	28.922039604343414	1522.3444067760852	-346.8905550447412	57.35574371341057	1362.9096201680636	-224.67034947276449	238.45372193256668	1328.4818692818706	-248.55510347866286	256.15041396281515	1070.4097140727952	-293.72210039347806	154.52122110314303	899.2140140037288	-410.06640232489394	-100.51679851526275	1327.176302542538	-227.40294330325642	-142.7911021296632	1088.2136769910287	-267.95845307132953	-50.38127508479319	910.411143826313	-352.740952821375	148.6021318945562	876.821358327042	-271.206420560631	153.03293810374126	485.9324643437556	-183.6965016914673	211.31465230261688	112.34939502342456	-161.29304961729162	-39.8490439381981	869.9614430097208	-259.024021242835	-44.256133835073264	481.97097161431503	-181.20465195795333	-96.51227568788711	106.08493661151248	-158.05148235454794	212.9775939191094	57.89797334607897	-142.79556382374653	-104.17919936115844	44.64711160007587	-132.4099592583298	240.98356703154084	35.66144643914337	-359.3335335590614	296.74238496833254	45.87872942002368	-293.4109098387883	-132.047135642447	44.075756566422136	-356.1304302203903	-201.31742881452527	34.2063841268689	-288.20530683248455	-85.74578044455095	935.5330212863987	-280.82731052850806	190.46422776017204	942.1266613562891	-296.31022636828965	106.08089861996764	931.8116071382942	-164.06280795131988	11.713573687705537	929.1348811969796	-163.26734384499954	146.60233994955027	830.1785297155628	-433.5840766324543	106.03716648187286	849.7581726629293	-462.5693580410816	-46.38197106521777	838.0442551895397	-376.44023123110827	3.999229030799245	850.8959883427267	-388.7818257614685	-93.85556251745655	478.58543785951355	-166.56354167060903	181.13657242618842	890.3755029561906	-402.63904036019045	-147.39191428209335	99.2989931473059	-141.64238965131426	179.6865825267968	97.28049707959075	-174.2971985998593	197.12664655727602	477.2682564373007	-175.95436735154053	53.80894499584366	1198.4164205151853	-323.69207792782737	-72.68837008883476	90.26484522837302	-177.10755574414404	112.8526953799929	475.5841006961591	-198.51609318040215	-147.22949073680672	1091.7486440228354	-234.6056483369432	50.6210751254034	982.4629820414223	-344.9255202170697	268.3101913680199	1084.1588519696345	-329.4295784593182	130.53397516806538	919.7037432116686	-404.7458707768755	-80.28945438649485	908.172260023481	-356.8415039652748	-146.44177920018063	1105.0769766530993	-301.18979127264475	-11.166049473327554	472.1994578069246	-218.69803009491756	244.8844639137755	1069.62448585343	-258.47756002053944	259.5317473616472	101.76251809625441	-162.67736975278038	-28.935055634291494	930.1344383939443	-352.7361589068864	26.284211810184782	1446.2381524290563	-326.1000770774684	63.95107161232817	1203.5288083560022	-130.42884724554017	64.39833954547991	1550.5042193537972	-355.3238755946374	-2.8423522794121525	1557.4962530587782	-338.28488633309405	-29.121880881761285	1557.6250996727601	-225.52113979170466	137.97520787434732	1537.152247658421	-265.19132009061036	59.75258903352305	1419.887802100546	-174.62264158126817	61.74792043173044	1302.4410866644146	-127.28387999929811	74.0866302412074	1054.2758020314725	-151.3629285811314	63.17734443351386	1194.4092398044936	-143.563380517706	210.08590118353692	1203.3310333160657	-298.62770111032376	288.51056652949654	1175.7485335364638	-267.6993576158703	-115.4511622433925	1284.5412745965587	-261.65806010544287	-148.58100147317936	1151.999112142061	-221.8010668472352	96.57009887827616	1008.9127583616287	-307.40596993290774	53.220156255626264	1113.4484075667103	-356.622505281482	-5.282649055023563	1243.0917382897535	-324.9257869423311	-10.682584559790424	1041.8514732889391	-304.92966611781	125.70623096290024	1284.5445072939401	-338.38318035763626	133.88381539920658	662.2166934213498	-230.66047296043322	230.2675480423017	632.3569259362778	-199.40293814233016	0.29306875778026265	587.8510268164853	-222.88079156691782	-143.34470826707403	768.6981351063671	-219.426716640099	-149.6682512021291	206.47128092740485	-157.67896812846953	-19.95260495457151	329.58212067070605	-187.63045328928592	234.32032775265338	334.7201569560555	-171.5581076207863	144.930712633667	284.6061224639404	-177.71722047069508	261.89587581100454	33.626198157798854	-338.554587790116	282.4676004679096	40.31993069929422	-319.7159864823148	216.9118671894751	49.20441601093476	-282.1464309762114	249.31213628391384	62.45777255996936	-265.4662780793017	279.39519190271875	55.34082624517256	-249.0623343769489	-176.637230679517	33.68088993396198	-322.60850140159323	-175.71669614519664	64.14981919207789	-216.47300410768062	-189.9257178651409	34.29374521519538	-312.4179984909028	-160.20719611082393	32.894838248836614	-334.49307577809674	-156.5760626887772	48.658443987293396	-276.05731666148284	-121.14224565853488	59.110663157869716	-251.9538196395703	
187	6.233333333333333	77.2102675456236	1695.4951133524276	-230.94844989586548	29.928061484684033	1522.5574469581811	-349.17961461821966	56.44403749664992	1362.9184778889244	-225.47327524174403	239.84873754408287	1329.196995986056	-249.77577230126118	255.8467482850537	1071.0197148838442	-294.9755841191761	155.75481599462242	899.1897924962416	-411.71692220467463	-101.60275151776632	1326.3604132431865	-225.9789962476878	-141.81227751525557	1087.6095556045761	-269.753698131161	-48.74800456486271	910.1102281443784	-354.45564054992315	150.27252492726433	877.0723887246108	-271.9318675753644	153.31986187223833	486.20931519517274	-184.2476793069395	211.30015503186561	112.58694592028401	-161.71784708073835	-38.145390554524745	869.6395764362808	-259.57236147558245	-43.809654772809786	481.4875054308942	-182.56950698048013	-96.74820098248827	105.76425773959286	-158.34892887713164	212.93989030145326	58.18269602035742	-143.15565111313887	-104.4497991879956	44.400316850993676	-132.53917704343016	241.04882068298576	35.54655092031922	-359.63886746896947	296.7628376359804	46.127863995917586	-293.7357939750727	-133.42660000421637	43.424222370885296	-356.11732825830524	-202.4042954897201	34.03352801577822	-287.8275574225748	-84.26399071727562	935.0550409868973	-281.37643081958765	191.9101075171466	942.4899413258734	-297.1166698927186	107.67989818402302	932.0015869143257	-164.78529600242283	13.322041247344936	929.0344971659358	-163.90163740156132	148.24681444287785	830.0636449004496	-435.1026743996885	107.88329801200899	849.4397731038193	-464.50326031099286	-44.67592130041423	837.9430139049321	-378.74407663698787	5.988867234262049	850.644474191922	-390.0356413213883	-93.37278902918791	478.27511284547563	-167.78667176789975	182.32896115194885	890.4513181069533	-404.0282432644136	-147.59440597964496	99.1200595948779	-141.77898488444856	179.61591076524812	97.5388556207199	-174.60885236877215	197.38499649714896	477.38851878069966	-176.51969580074635	51.2972204878588	1198.3882940179055	-324.3632347394589	-73.0101067185909	89.8501405186526	-177.43377774186223	113.0962184788774	476.00027795867913	-199.0461555220353	-146.97337059388994	1090.793883070663	-236.46964720858716	48.6227466206256	982.4174656916368	-345.49041334905036	268.32099486779447	1084.6933434762723	-330.6034948435255	131.66149276560606	919.6239389185	-406.6689065258263	-78.58618523467744	908.0646409690463	-359.12734868856637	-144.84302038421197	1104.7822576649107	-302.88877107246356	-10.856749187499837	471.68693971631797	-220.17026018676233	244.3676741911612	1070.303040198561	-259.7984171595411	259.5020319837822	101.95074755565675	-163.24654060814163	-27.206465198622144	929.7207311148951	-353.8734418911228	27.631906320490426	1446.1181883108122	-329.60587023405765	66.05753902532676	1203.5916473638704	-131.40019764135505	65.28361798225599	1551.1255864283412	-356.69691661981034	-2.2335947354762133	1557.3180522308526	-340.46097865522324	-30.0189073530069	1555.482768478317	-228.07369781189956	137.75481692461167	1536.9557488731737	-265.79670050102544	59.773288306175694	1419.9185053793651	-175.50384354447147	63.462163816518746	1302.4930897583272	-128.2139437144385	76.39377552488436	1054.3836202868736	-152.55562431656278	65.01152377574101	1194.465595427154	-144.5113446825762	210.8248406444105	1204.2902675296223	-300.0813646905674	288.85372544548005	1176.0963728206593	-268.7064973941196	-115.59499167008704	1283.9943345271877	-260.9579391247893	-148.89723853987758	1150.9078815173261	-223.1089316639818	95.33455804679056	1009.0927446821898	-309.0890909991776	50.319498929213815	1113.4111168433299	-357.26074775004423	-8.017888667263051	1242.7831942717364	-324.18102323594934	-11.98241947002708	1041.5240851423314	-304.03898021557575	122.41186749315708	1284.8523858790797	-340.78770892084	134.79169249430927	662.5408148918713	-231.28321984176515	231.0792020341666	632.3452725236829	-200.0516998165412	1.029020076310054	587.3029186035116	-224.14092933726863	-141.91134178352644	768.6849398660913	-219.89434092606336	-149.70289107284552	206.25723378046968	-158.0711003144885	-19.827999466544625	329.0351674150166	-188.691530581604	234.49468635248726	334.92600014076714	-172.2414855382347	145.03604830345284	284.89620912481166	-178.0747097416223	261.96680164956746	33.638680517010904	-338.8535461067911	282.5114605892296	40.453891691535624	-320.0289692023697	216.91934326529255	49.17878769959017	-282.48552662628595	249.2679213814551	62.5931230292867	-265.83375496687535	279.37613511960575	55.627973373032575	-249.41082328688634	-177.8972692509085	33.313267801299105	-322.3508106129048	-176.31258512944842	64.03008839697014	-216.29463432637428	-191.13223959654334	34.0111605848516	-312.0963316664225	-161.52999475629554	32.423776422211034	-334.3144284601657	-157.53788456141245	48.30958364537074	-275.9353352469129	-121.9379142982822	58.656881843574226	-252.03223124618756	
188	6.266666666666667	75.85020816752576	1694.761788948503	-230.71612869650988	31.176983067873508	1522.673622522865	-351.1803047611762	56.011470596185625	1362.8715640205944	-225.64687465037588	239.4248170092871	1329.770254076766	-250.93755216544034	256.2899539618861	1071.6686649124085	-296.25426696006036	157.1515869468194	898.9383550613682	-412.4793993527748	-102.81237574291029	1324.3539090389095	-225.17652639432086	-140.9055625288675	1085.529424756118	-270.4178499453677	-44.97286220048502	911.1077112657562	-358.25504063877446	150.8012194230255	877.0853772590393	-273.79290383298917	153.7332834834494	486.435133073437	-185.16144721795666	211.4093825101751	112.81189389141893	-161.87786283337104	-37.518884226299356	869.5063779139006	-260.1030428227143	-44.247073324440386	481.7117910001408	-181.49157780877405	-96.93402001635658	105.88748216368266	-158.3127195531317	213.02383839784633	58.48930581926151	-143.1617864506153	-104.5487432653159	44.469424963892685	-132.65207756816517	241.12004652165942	35.02290049368042	-359.55823028948265	296.82912563932206	46.00718065613415	-293.71694339015863	-133.5433638243439	43.868628343592206	-356.2292420297836	-202.47792766197946	34.06522559227424	-287.9539198498854	-83.838767777302	934.9007018089076	-281.540778557612	192.2113333613146	942.5484740019674	-299.2331115459068	108.92868444939592	931.9198437838457	-166.31449408334885	14.581658464559165	928.8826797887795	-164.7640223925102	150.10608828978746	829.7311609237709	-435.76916111062644	109.4923583689746	848.759870312756	-465.0518422661362	-39.56940424020659	839.2949586820905	-383.3219113884091	10.60794692283766	853.2999152652401	-395.2316529923264	-93.78179001392779	478.7089336060935	-166.54736584941926	183.81935021011014	890.4163118579479	-404.8723571211693	-147.73503561670177	99.16535576237406	-141.63594510067588	179.67689773739733	97.76362390113641	-174.6494466894017	197.8133961396973	477.5893178945077	-177.54833418833522	50.211924724553725	1198.5696759729472	-324.87968208357375	-73.23590784129951	90.04530443960374	-177.50679641788926	113.45389792217087	476.2300523357038	-199.81027834413703	-145.5007794684994	1088.3504986455357	-237.01829317611913	47.92329245762818	982.6443227717522	-346.5109830543579	268.5490809397341	1085.3995312859988	-331.93479503413045	132.91617008453554	919.1884245921416	-407.3701645736489	-74.82132363835616	908.4020149810167	-362.5064953210827	-144.7448201058187	1102.9608149807746	-303.33330062297125	-11.455919518395929	471.6266111987959	-219.1651665298316	244.97036599059695	1070.8988323206327	-261.0265771989573	259.5967374860108	102.12490055297818	-163.50683645410763	-23.892041581401237	931.215805074499	-357.79431761237663	30.297310048266386	1445.941701903574	-332.66537581809564	67.16292871593322	1203.3436976560815	-132.0856267910211	65.99683378767314	1551.9620076851281	-358.4213190451311	-1.558136661622009	1556.7376932441673	-341.8670107686512	-28.890058462853947	1552.854723661733	-229.42066197539097	139.0423887051082	1537.812701584824	-267.97878310872557	59.74641228306473	1419.7585602094923	-175.57741265793968	64.31691938794661	1302.22900347211	-128.62441040933456	77.68986865249592	1054.2188833462114	-153.72814280957536	65.99354654970311	1194.2467548898726	-145.2065766898717	210.69475232705622	1204.7525736920322	-301.1360880519226	288.978270998356	1176.8767949539545	-270.1132493002162	-116.92068927933707	1282.1350624800064	-260.2866152498567	-147.9122461137311	1148.3136630717147	-223.071733112762	94.97067937589162	1009.3672466747919	-310.5798151497054	49.10485022623695	1113.670820144176	-357.97472109711515	-9.225914047885635	1242.7898558582942	-323.9093436721604	-12.375266578771575	1041.4712598841093	-304.22298030302994	120.88265128490097	1285.281915350851	-341.9011832424708	135.2340390999139	662.6694344303278	-232.5711709217925	231.58791025783572	632.454353839053	-201.56401798688887	0.80955021058398	587.184310375629	-223.6449781132928	-141.49999473351298	769.0681400618091	-219.68466050649656	-149.93880070358696	206.35181526662944	-157.5877207207214	-20.203572808073908	329.291697309425	-188.1503654567987	234.79226066703424	335.1020323606012	-173.00097524310232	145.27010097483642	285.1457584044306	-178.4789339647409	262.04872984630896	33.25000502104095	-338.7717313716093	282.5830937216359	40.19110237174178	-319.98195016653284	216.9821256249827	48.917983373557036	-282.4544365450014	249.30428132849227	62.4767307689094	-265.8684479516352	279.4336796921381	55.65003849410127	-249.42624140775615	-177.9716839504763	33.51395336801314	-322.4808403435693	-176.49435798019732	64.00586532093205	-216.35823373581542	-191.20823212380972	34.13882995446106	-312.22368895745075	-161.6022870606798	32.71319786880037	-334.4478223100292	-157.66537878392597	48.48716549316735	-276.0346642208883	-122.10298209922432	58.91876031969125	-252.11227690224962	
